<?xml version="1.0" encoding="UTF-8"?>
<svg width="75px" height="24px" viewBox="0 0 75 24" version="1.1" xmlns="http://www.w3.org/2000/svg" xmlns:xlink="http://www.w3.org/1999/xlink">
    <!-- Generator: sketchtool 51.2 (57519) - http://www.bohemiancoding.com/sketch -->
    <title>FE8B11FE-35A2-462B-A0CF-572CA84DD884</title>
    <desc>Created with sketchtool.</desc>
    <defs></defs>
    <g id="Page-1" stroke="none" stroke-width="1" fill="none" fill-rule="evenodd">
        <g id="2---Cadastro-Vazio" transform="translate(-1173.000000, -16.000000)" fill-rule="nonzero">
            <g id="header-2/logo" transform="translate(552.000000, 0.000000)">
                <g id="logo" transform="translate(621.000000, 16.000000)">
                    <path d="M73.6869453,20.7148178 C73.2499383,20.7148178 72.895419,20.3520169 72.895419,19.9048014 C72.895419,17.0399566 72.895419,7.56179549 72.895419,7.56179549 C72.8964057,7.53948015 72.8964057,7.51716482 72.8982804,7.49484948 C72.9039045,7.42790347 72.9172249,7.36196721 72.9380442,7.29885823 C72.9806694,7.1717315 73.0546715,7.0563178 73.1513675,6.96614769 C73.2319805,6.89051788 73.3267031,6.83225567 73.4301087,6.79540003 C73.4926652,6.77409444 73.5570963,6.7604629 73.6216261,6.75460638 C73.6434321,6.75268787 73.665238,6.75268787 73.687044,6.75167813 C73.7088499,6.75268787 73.7306559,6.75359664 73.7524618,6.75460638 C73.7742678,6.75753464 73.7960737,6.75945315 73.8178797,6.76238141 C73.8823108,6.77399346 73.9458539,6.79338054 74.005549,6.81963388 C74.2065386,6.90980399 74.3648044,7.08640816 74.4359451,7.29885823 C74.457751,7.36196721 74.4709728,7.42790347 74.4766956,7.49484948 C74.4785703,7.51716482 74.4785703,7.53948015 74.4785703,7.56179549 C74.4785703,7.56179549 74.4785703,17.0399566 74.4785703,19.9048014 C74.4785703,20.3520169 74.124939,20.7148178 73.687932,20.7148178 C73.6869453,20.7148178 73.6869453,20.7148178 73.6869453,20.7148178 Z M73.7087512,2.9603935 C74.1590786,2.9603935 74.5240569,3.33389769 74.5240569,3.79373496 C74.5240569,4.25357224 74.1590786,4.62707643 73.7087512,4.62707643 C73.2594106,4.62707643 72.8944323,4.25357224 72.8944323,3.79373496 C72.8944323,3.33389769 73.2594106,2.9603935 73.7087512,2.9603935 Z" id="Shape" fill="#333333"></path>
                    <path d="M69.2105097,8.30971264 L69.2105097,3.70932039 C69.2114964,3.68599531 69.2114964,3.66277121 69.2133711,3.63944613 C69.2190939,3.56866309 69.2341903,3.49878883 69.2579697,3.43285257 C69.2978321,3.32228563 69.3603886,3.2204025 69.4418895,3.13699767 C69.5233905,3.05359284 69.622948,2.98856534 69.730991,2.94878144 C69.7964089,2.9245476 69.8637014,2.90899754 69.9329674,2.90223226 C69.95576,2.90031375 69.9794407,2.90031375 70.0021347,2.899304 C70.0249273,2.90031375 70.0476213,2.90122252 70.071302,2.90223226 C70.0940946,2.90606929 70.1167886,2.90808877 70.1395812,2.9119258 C70.2078605,2.9245476 70.2741663,2.94585319 70.3367228,2.97503478 C70.4410164,3.02552196 70.5338643,3.09822351 70.6087545,3.18940336 C70.6826579,3.27967445 70.7367287,3.38630338 70.7671189,3.49979857 C70.7784659,3.54543899 70.7870501,3.59198817 70.7907996,3.6395471 C70.7926743,3.66287218 70.7926743,3.68609629 70.793661,3.70942136 C70.793661,6.85648952 70.8031333,10.0036587 70.793661,13.1507268 C70.7907996,13.4621318 70.7718551,13.7735367 70.7329793,14.0830232 C70.6599639,14.6679677 70.5206426,15.2452381 70.319653,15.7991835 C69.989801,16.7023993 69.4930003,17.538669 68.8635879,18.2564958 C68.0834085,19.1461809 67.1012528,19.8465392 66.0149022,20.2850708 C65.3162238,20.5663854 64.5777816,20.7400614 63.8287818,20.7992323 C62.9718376,20.8651686 62.1044345,20.7836823 61.2749204,20.5537636 C60.3894608,20.3082949 59.5504744,19.8950069 58.8091709,19.3410615 C58.0156711,18.7492507 57.3379107,17.9984053 56.8221655,17.1436573 C56.4363679,16.502369 56.1424316,15.8029196 55.9547623,15.0752983 C55.6504657,13.8956147 55.6239237,12.6432296 55.8779975,11.4518331 C56.0315272,10.7281497 56.2894491,10.0287003 56.6382456,9.37963705 C57.0477238,8.62101662 57.5815256,7.93509773 58.210938,7.35590875 C58.8090722,6.80580039 59.4926542,6.35474788 60.2292216,6.02486462 C60.8264678,5.75708059 61.4578536,5.56987411 62.1014744,5.46900072 C62.417118,5.41952328 62.735623,5.39044266 63.0551147,5.38266763 C63.1034627,5.38165789 63.1518107,5.38074912 63.2011455,5.37973938 C63.2267008,5.37973938 63.2513682,5.37973938 63.2770223,5.38074912 C63.3007029,5.37973938 63.3083005,5.37973938 63.3443148,5.37973938 C63.5850683,5.38266763 63.8259204,5.39528943 64.0657858,5.41952328 C64.6108359,5.47677574 65.1502618,5.59410796 65.6707431,5.77071213 C66.5959666,6.08504534 67.4577455,6.58466652 68.1980624,7.23372976 C68.5687636,7.55785749 68.9071998,7.91964865 69.2105097,8.30971264 Z M63.2695234,6.9999741 C63.2240368,7.00098384 63.1785501,7.00098384 63.1339516,7.00189261 C63.0827421,7.00290236 63.0315327,7.00381113 62.9803232,7.00673938 C62.6674424,7.02127969 62.3555483,7.06005385 62.0484889,7.12417257 C61.4759101,7.24443305 60.9222758,7.45112758 60.409392,7.7362792 C59.842536,8.05253092 59.3258041,8.46289076 58.8859357,8.94605311 C58.4205119,9.45829609 58.0413252,10.0510156 57.7710696,10.6933136 C57.5473859,11.2239339 57.3994804,11.7876738 57.3321879,12.3610063 C57.2572977,12.9906824 57.278117,13.6328794 57.3947443,14.2556893 C57.5093982,14.8668872 57.7170974,15.4596067 58.0080736,16.0067868 C58.3502593,16.6519121 58.8071975,17.2321108 59.3494848,17.7132537 C59.9031191,18.2040901 60.5458519,18.5893073 61.235058,18.8434598 C61.9763616,19.1160906 62.7698613,19.2334228 63.5566515,19.1927301 C63.9547827,19.1723333 64.3520259,19.1102341 64.7388102,19.0084519 C65.1502618,18.9008132 65.5502677,18.7465244 65.9294544,18.5505331 C66.3569892,18.3293993 66.7579818,18.0557587 67.1219734,17.7365787 C67.5116191,17.3950834 67.8585409,17.0021922 68.1514905,16.5704258 C68.5998444,15.907832 68.9184481,15.1559768 69.08145,14.367266 C69.1382836,14.091707 69.1762714,13.8123109 69.1952159,13.532006 C69.2056749,13.3874107 69.2094243,13.2438252 69.210411,13.0993309 L69.210411,12.3367724 C69.2019254,12.2689176 69.1923545,12.2009619 69.1819942,12.1340159 C69.1147016,11.6994222 69.0009358,11.2735123 68.843558,10.865071 C68.5127193,10.0084044 67.9903632,9.23332519 67.3286859,8.61051528 C66.7371626,8.05273287 66.0346361,7.61904796 65.2753746,7.34540742 C64.8801048,7.20283161 64.4705279,7.10387672 64.0553269,7.04955251 C63.8022397,7.0165339 63.5481659,7.00108482 63.2931054,7.00007507 L63.2695234,7.00007507 L63.2695234,6.9999741 Z" id="Shape" fill="#333333"></path>
                    <path d="M47.355621,5.37984035 C47.3859126,5.37984035 47.4163028,5.37984035 47.447581,5.37984035 C47.6409731,5.38175886 47.8352532,5.39054363 48.0277573,5.40700246 C48.4382223,5.44193959 48.8449377,5.51080411 49.2440557,5.61359601 C49.3037507,5.62914607 49.3730166,5.65630817 49.4479067,5.69407259 C49.5285197,5.71830643 49.6081459,5.74455977 49.6867855,5.77071213 C50.6120089,6.08504534 51.4736892,6.58466652 52.2141048,7.23372976 C52.9961589,7.91863891 53.6388917,8.76561191 54.0910937,9.71143883 C54.4949478,10.5554836 54.7451735,11.4741484 54.8267732,12.4103827 C54.8419683,12.5899152 54.8514405,12.7702554 54.85519,12.9517063 C54.85519,12.9856337 54.8561767,13.0167338 54.8561767,13.0506612 C54.8561767,13.0982201 54.8561767,13.1447693 54.8514405,13.1923282 C54.8409816,13.2854266 54.8144395,13.3776162 54.772801,13.4620308 C54.7386614,13.5319051 54.6950495,13.5978413 54.6419653,13.6550938 C54.5158657,13.7928228 54.3424048,13.8820842 54.1594717,13.9054092 C54.0978033,13.9121745 54.0352468,13.9131843 53.9736771,13.9054092 C53.9376628,13.910256 53.9243424,13.9093472 53.8817172,13.9112658 L45.2209075,13.9112658 C45.1744342,13.9093472 45.1630872,13.910256 45.1176006,13.9034907 C45.0313635,13.8927874 44.9478891,13.8666351 44.8701376,13.8268512 C44.777191,13.780302 44.6938153,13.7143657 44.625536,13.6347979 C44.5686037,13.5688617 44.5222291,13.4922221 44.4889775,13.4107358 C44.4624354,13.3457083 44.4443789,13.2768438 44.4358933,13.2060608 C44.4083646,12.9945195 44.4652968,12.7772226 44.5922844,12.6074847 C44.6340216,12.551242 44.6832576,12.5007548 44.7383152,12.4581436 C44.8340246,12.3824128 44.9469024,12.3301081 45.0662925,12.3058743 C45.0994454,12.299109 45.133585,12.2942622 45.1687113,12.2922427 C45.1857812,12.291233 45.202851,12.291233 45.2208088,12.2903242 L53.2209279,12.2903242 C53.214317,12.2379185 53.2067195,12.1856138 53.1981352,12.1341169 C53.1308427,11.6995232 53.0170768,11.2736133 52.859699,10.865172 C52.5288603,10.0085054 52.0065043,9.23342617 51.3448269,8.61061626 C50.7533036,8.05283384 50.0507771,7.61914893 49.2924037,7.34550839 C48.8971339,7.20293258 48.4865703,7.1039777 48.0713692,7.04965349 C47.8267677,7.01764461 47.5812781,7.00209456 47.3356898,7.00118579 C47.0029764,7.00411405 46.6701644,7.03612292 46.3431738,7.09630365 C45.5781896,7.23605217 44.8415234,7.53190707 44.1874437,7.96165399 C43.6044059,8.34485172 43.0867859,8.8318511 42.664974,9.39458126 C42.2553971,9.94176136 41.9360041,10.5597245 41.7274169,11.2164618 C41.5350115,11.8238226 41.4373287,12.4620816 41.4373287,13.1004416 C41.4373287,13.6524684 41.5093574,14.2024758 41.6534148,14.7341059 C41.8212516,15.3539875 42.0875604,15.9447886 42.4354689,16.4793469 C42.8336001,17.089535 43.3388864,17.6250021 43.9200494,18.0538402 C44.5078234,18.4875251 45.1732501,18.8095324 45.8739019,18.9996671 C46.7375556,19.232514 47.6514321,19.2635132 48.5291955,19.090847 C49.3188471,18.9356494 50.0753458,18.6135411 50.7408712,18.1507756 C50.9665283,17.9945683 51.1807396,17.8219021 51.383604,17.6356044 C51.4850362,17.542506 51.582719,17.4454696 51.6775403,17.345505 L51.7030957,17.3183429 L51.7306245,17.2892623 L51.7761111,17.2436219 C51.7921942,17.2300913 51.808376,17.21545 51.8254458,17.2019195 C51.8595855,17.1757671 51.8955998,17.152442 51.9326008,17.1320452 C52.0643246,17.0602524 52.2150915,17.0282435 52.363885,17.0398556 C52.4492341,17.0466209 52.5326098,17.0670177 52.611348,17.1009451 C52.7090308,17.1426475 52.7981293,17.2057565 52.8720327,17.2833048 C52.9611312,17.3774129 53.0275357,17.4928266 53.0635501,17.6180348 C53.0872308,17.7024494 53.0976897,17.7897922 53.0948283,17.8761253 C53.0919669,17.9634682 53.0748971,18.0498012 53.0454936,18.1312876 C53.0160901,18.2127739 52.9734649,18.2894134 52.919394,18.3573692 C52.8957134,18.3864498 52.8720327,18.4116934 52.8473653,18.4388555 C52.8142124,18.4737926 52.7819475,18.50772 52.7487945,18.5426571 C52.6056252,18.6891709 52.4558449,18.830838 52.3023153,18.9666485 C51.8852395,19.3323777 51.4291893,19.6505479 50.944821,19.9154037 C50.5238971,20.1453223 50.082154,20.3335385 49.6270905,20.4780329 C48.3586947,20.8797089 46.9888667,20.9291863 45.6958035,20.6235369 C44.873887,20.4285554 44.0842354,20.0909981 43.3713486,19.6282326 C42.6944762,19.1907106 42.0877577,18.6426218 41.5777354,18.0110271 C40.9871,17.2776502 40.5292738,16.4336055 40.2363242,15.5313995 C39.9670552,14.7009863 39.839081,13.8259424 39.8561508,12.9518073 C39.8703592,12.161178 40.0030696,11.3743857 40.2514206,10.6254588 C40.5443702,9.73971165 40.9965723,8.91121695 41.5776367,8.19046191 C42.0004353,7.66660688 42.4905264,7.19990335 43.0318271,6.80610331 C43.5655301,6.41704907 44.1485679,6.09988857 44.7618972,5.86603194 C45.3022111,5.6593374 45.8663044,5.51676159 46.4388832,5.44214154 C46.7137763,5.40619466 46.9896561,5.38680758 47.2665225,5.38196081 L47.2683973,5.38196081 C47.3120091,5.37984035 47.3138839,5.37984035 47.355621,5.37984035 Z" id="Shape" fill="#333333"></path>
                    <path d="M32.0731045,5.92419317 C32.0740912,5.90187784 32.0740912,5.8795625 32.0759659,5.85724717 C32.0816888,5.7913109 32.0949105,5.72527367 32.1157297,5.66125592 C32.1583549,5.53412919 32.232357,5.41972523 32.3290531,5.32854537 C32.4086793,5.25291557 32.5043887,5.19465336 32.6077943,5.15779771 C32.6694627,5.13649212 32.7347819,5.12286058 32.7993117,5.11700407 C32.8211176,5.11508555 32.8429236,5.11508555 32.8647295,5.11407581 C32.8865355,5.11508555 32.9083414,5.11599432 32.9301474,5.11700407 C32.9519533,5.11993232 32.9737593,5.12185084 32.9955652,5.12568786 C33.0599964,5.13639115 33.1225528,5.15577823 33.1832345,5.18294033 C33.3842242,5.27311044 33.54249,5.44870487 33.6136307,5.66115494 C33.6354366,5.72517269 33.6486583,5.79110895 33.6543811,5.85714619 C33.6552692,5.87946153 33.6552692,5.90177686 33.6562559,5.9240922 L33.6562559,8.36979239 C33.7861049,8.20005447 33.9216767,8.03506236 34.0648461,7.87602772 C34.453505,7.4443623 34.889624,7.05722657 35.3626453,6.72643453 C35.8907242,6.3558586 36.4651778,6.05414719 37.0680481,5.83291234 C37.58182,5.64378735 38.1156217,5.51272262 38.6578103,5.44193959 C38.9602322,5.40316543 39.2645288,5.38367738 39.5688253,5.37984035 C39.6152987,5.37984035 39.6152987,5.37984035 39.6607853,5.38175886 C39.6768684,5.38276861 39.6920635,5.38367738 39.7072586,5.38559589 C39.7375501,5.38852415 39.7679403,5.39427968 39.7982318,5.40114594 C39.9025254,5.42638953 40.0020829,5.47394846 40.08832,5.53887498 C40.2371135,5.6514614 40.3442686,5.81726132 40.3868938,6.00063077 C40.4049503,6.07727032 40.4124491,6.15683812 40.4078117,6.23539618 C40.4039636,6.31304547 40.3878805,6.39059378 40.3623251,6.46531482 C40.3310469,6.55356641 40.2845735,6.63707222 40.2257665,6.70886499 C40.1072645,6.85436906 39.9395265,6.95433368 39.7574813,6.98725133 C39.7271898,6.99310784 39.6967996,6.99694487 39.6655214,6.99886338 C39.6342432,7.00078189 39.6105625,6.99987312 39.5792843,7.00078189 C39.5470194,7.00078189 39.5337977,7.00078189 39.5015328,7.00179164 C39.4503233,7.00280138 39.3992126,7.00371015 39.3488911,7.00663841 C39.1592485,7.01542318 38.9706911,7.03279077 38.7829232,7.05995287 C38.3459162,7.12205211 37.9145333,7.2355473 37.501207,7.39660142 C36.8613356,7.64590714 36.2649775,8.00880902 35.7445948,8.46470829 C35.2999902,8.85376254 34.9113313,9.31067156 34.595589,9.81412976 C34.348126,10.2089395 34.1462484,10.6329309 33.9936067,11.0742899 C33.8457012,11.503128 33.7461437,11.948425 33.695921,12.3994775 C33.6693789,12.6323244 33.6570452,12.8670898 33.6560585,13.1008455 L33.6560585,20.0101176 C33.6541838,20.0701974 33.6550718,20.0848387 33.6455996,20.1440097 C33.6313912,20.2323622 33.6029744,20.3176856 33.5612372,20.3962436 C33.5195,20.4748017 33.4655278,20.5455847 33.400998,20.6067752 C33.3043019,20.697955 33.1857999,20.7629825 33.0588123,20.7960012 C32.953532,20.8231633 32.8417395,20.82801 32.7345845,20.8095317 C32.6701534,20.7988284 32.6066102,20.7794414 32.5469152,20.7522792 C32.467289,20.7164333 32.3923989,20.6669559 32.3288557,20.6067752 C32.2160766,20.501055 32.1345756,20.3613065 32.0975745,20.2100469 C32.0862276,20.166426 32.079518,20.1216943 32.0757686,20.0771646 C32.0738939,20.0548493 32.0738939,20.0325339 32.0729072,20.0102186 L32.0729072,13.0983211 L32.0731045,5.92419317 Z" id="Shape" fill="#333333"></path>
                    <path d="M24.8048632,5.38015086 C24.9988622,5.3820873 25.1925008,5.39020189 25.3858691,5.40652328 C25.7957629,5.44147135 26.2028635,5.51044537 26.6016743,5.61316871 C27.4813829,5.83963956 28.3187414,6.23162961 29.0629299,6.76221319 C29.3241483,6.94847993 29.5737429,7.15162133 29.8100019,7.36997759 C29.899928,7.45305993 29.9876916,7.53863198 30.0737432,7.62577162 L30.1044695,7.65721566 C30.1428548,7.69972505 30.1538478,7.70940723 30.1869168,7.75652718 C30.2615249,7.86257013 30.3103625,7.98696312 30.3282036,8.11633551 C30.3401878,8.20255304 30.3382955,8.29061479 30.3229774,8.37627905 C30.292071,8.54797641 30.2062897,8.70722525 30.0808616,8.8255323 C30.0182377,8.8845475 29.9464229,8.93305062 29.8688413,8.96873638 C29.7912597,9.00442214 29.7080916,9.02719832 29.6234817,9.03586617 C29.4322759,9.05550717 29.2371055,9.00193243 29.0812215,8.88685278 C29.0360782,8.85356452 28.9967017,8.81483579 28.9574154,8.77490831 C28.9320054,8.74890474 28.9061448,8.72345443 28.8802843,8.69791191 C28.8455933,8.66397817 28.8106321,8.63050549 28.7753104,8.59730943 C28.509046,8.34935336 28.2224177,8.12481895 27.9174076,7.92905445 C27.3711828,7.57846724 26.7701733,7.31990688 26.1430329,7.16646734 C25.3455014,6.97134832 24.5079627,6.9482033 23.7008799,7.09574131 C22.9355163,7.23581021 22.1996176,7.53199277 21.545175,7.96151281 C20.9620066,8.34428174 20.444796,8.83124939 20.0231883,9.39392249 C19.6130241,9.94147294 19.2938673,10.5597494 19.0856315,11.2160169 C18.8927137,11.8236891 18.7954889,12.4616988 18.7954889,13.1006306 C18.7954889,13.6518695 18.8676641,14.2026474 19.0117442,14.7338764 C19.1797025,15.3533517 19.4450658,15.9442414 19.7936873,16.4789745 C20.1914169,17.0892286 20.6967334,17.6250682 21.2781898,18.0538506 C21.8661339,18.4872435 22.5307585,18.8097984 23.2314257,18.9991082 C24.0951854,19.2326793 25.0097651,19.2633856 25.8870407,19.0910428 C26.6770033,18.9359434 27.4334463,18.6134807 28.0987917,18.150949 C28.3242379,17.9941899 28.5391416,17.821847 28.7417007,17.6352114 C28.8428001,17.5421703 28.9403853,17.4452563 29.0353574,17.3456681 L29.0609476,17.3183736 L29.0883399,17.2890504 L29.1340238,17.2435902 C29.1505133,17.2297585 29.1662819,17.2152814 29.183312,17.2020952 C29.217192,17.175815 29.2530544,17.1523011 29.2906287,17.1318302 C29.4222741,17.0603665 29.5731122,17.0280003 29.7218778,17.0396189 C29.8066679,17.0461659 29.8903767,17.0669135 29.9686792,17.1005706 C30.0470717,17.1343199 30.1200579,17.181071 30.1839433,17.2385186 C30.2799967,17.3247361 30.3548751,17.4345597 30.4007392,17.5565552 C30.4389443,17.658172 30.4567854,17.7674424 30.4530009,17.8761595 C30.4499373,17.9632069 30.4331775,18.0495166 30.4033523,18.1311236 C30.3736172,18.2126383 30.3308167,18.2890815 30.2773836,18.3567645 C30.253956,18.3864566 30.2301679,18.411538 30.2046678,18.4387403 C30.1722295,18.473504 30.1394308,18.5078988 30.1062716,18.5419247 C29.9630926,18.6893705 29.8141468,18.8309148 29.6597945,18.9661887 C29.2426921,19.331622 28.786844,19.6506729 28.302342,19.9154114 C27.8819057,20.1451097 27.440024,20.3336817 26.9845363,20.4779001 C25.7167397,20.8794801 24.3467624,20.9287209 23.0539161,20.6230406 C22.2312449,20.4285671 21.4419131,20.0906128 20.7287212,19.6283578 C20.0525629,19.1902621 19.4453361,18.6422506 18.9359648,18.0106035 C18.3445966,17.2774318 17.8868563,16.4331455 17.5942809,15.5306739 C17.3251331,14.7008648 17.1971821,13.8251345 17.2134913,12.9511562 C17.2285391,12.1451376 17.3666722,11.3423464 17.624016,10.5803125 C17.9320897,9.66769771 18.4099238,8.81704886 19.0234581,8.08360052 C19.425783,7.60271881 19.8855057,7.17246108 20.3895608,6.80546027 C20.9231707,6.41688203 21.5064293,6.0996753 22.1200537,5.86518207 C22.6606919,5.65862886 23.2243974,5.5164391 23.7967531,5.44184019 C24.0990599,5.40237377 24.4030788,5.3829172 24.7077285,5.37987422 C24.7398965,5.38005865 24.7724249,5.38005865 24.8048632,5.38015086 Z" id="Shape" fill="#333333"></path>
                    <path d="M3.75239884,0.456625338 L3.76773592,1.68347838 C3.76773592,1.68347838 7.25116885,1.66778303 9.69998834,1.68347838 C9.88243562,1.68740222 10.0639243,1.69884674 10.244774,1.72271675 C10.645455,1.77536156 11.0391066,1.88261311 11.4110307,2.04381741 C11.8887166,2.25047283 12.3290184,2.54541458 12.7063744,2.90935046 C12.8958511,3.09148189 13.0693518,3.29028964 13.2255982,3.50283081 C13.8007385,4.28563629 14.1269709,5.24141759 14.1924729,6.21583712 C14.2164371,6.57290629 14.207171,6.93226436 14.1586036,7.28671764 C14.1065214,7.66765682 14.0100257,8.04238325 13.871992,8.40043338 C13.6448116,8.98933592 13.3048398,9.5314794 12.8782774,9.98958737 C12.4654545,10.432981 11.9724315,10.7962629 11.430202,11.0555631 C11.001403,11.2605836 10.5425688,11.3998798 10.07351,11.467239 C9.84952481,11.4992837 9.62394201,11.5133441 9.39772017,11.514979 L9.32550811,11.5195568 C9.26288173,11.5316553 9.24594704,11.5319823 9.18619636,11.5558523 C9.09641057,11.5914938 9.01525189,11.6487165 8.95166694,11.7229424 C8.87178634,11.8154795 8.82098228,11.9322137 8.80660378,12.0548336 C8.80244999,12.0904751 8.8011719,12.1542375 8.80244999,12.1911869 C8.8040476,12.2480826 8.80628425,12.2824161 8.81970419,12.3376768 C8.84270981,12.4334839 8.88808198,12.5230781 8.95198646,12.5969771 C9.04784317,12.7081525 9.18236209,12.7813974 9.32582764,12.8000356 C9.37567313,12.8065754 9.41465486,12.8046134 9.4638613,12.8052674 C9.51786058,12.8062484 9.53319766,12.8069023 9.58751646,12.8088643 C9.64886476,12.8114802 9.71021305,12.815077 9.77156135,12.8196548 C9.95273054,12.8350232 10.1326216,12.8582392 10.3109151,12.8932268 C10.6780463,12.9654908 11.0365504,13.0815709 11.3774808,13.2395054 C12.1162165,13.5815332 12.7651665,14.1168099 13.2508405,14.7812463 C13.5885756,15.2426242 13.8457912,15.7648215 14.0065109,16.3177555 C14.1566864,16.8334131 14.221869,17.3735947 14.2017391,17.9111603 C14.1812897,18.4624594 14.0700959,19.0091807 13.871992,19.5222224 C13.6518411,20.0931407 13.3262478,20.6195888 12.9178982,21.0688682 C12.4970872,21.531227 11.9900052,21.9102042 11.430202,22.1776791 C11.0192962,22.373871 10.5815506,22.5098973 10.1335802,22.5801994 C9.91151215,22.6151869 9.68816601,22.6321902 9.46418083,22.6364411 C8.28322613,22.6442887 4.93335354,22.6590031 3.75239884,22.6361141 C3.50508852,22.6282664 3.26033439,22.5818343 3.02804162,22.493221 C2.65771519,22.3526169 2.32732905,22.1109739 2.07714303,21.7983749 C1.90939378,21.5887766 1.77870913,21.3487685 1.69243809,21.0927382 C1.61447463,20.8615588 1.57485385,20.6195888 1.57070006,20.375657 L1.57038054,20.3452472 L1.57038054,0.457933284 L0.371532589,0.457933284 C0.371532589,5.73941791 0.276314921,15.1536839 0.372491156,20.4345145 C0.37440829,20.4927181 0.376964469,20.5505947 0.38111826,20.6081443 C0.409236229,20.9665214 0.486880167,21.3190128 0.617564818,21.6531929 C0.800651139,22.1214375 1.08246987,22.5471738 1.43937637,22.8947603 C1.77519438,23.2217468 2.17587544,23.4777771 2.61010635,23.6435592 C2.96701284,23.7792586 3.34245164,23.8508686 3.72300278,23.8632941 C4.91865551,23.8861832 8.28354565,23.8714688 9.4795179,23.8639481 C9.70925449,23.8593703 9.93771299,23.8443289 10.1655324,23.8149001 C10.6815611,23.7475409 11.1886431,23.6111876 11.6704828,23.4097639 C12.6760197,22.9892594 13.5607772,22.2862386 14.2110052,21.3965086 C14.6330943,20.8190506 14.9548533,20.1663857 15.1558329,19.4751364 C15.335724,18.8561511 15.4184803,18.208718 15.4025042,17.5635738 C15.38525,16.8726515 15.2542458,16.18598 15.013965,15.5401818 C14.7474833,14.8234276 14.3483999,14.1596452 13.8441935,13.5923237 C13.472589,13.1737811 13.044429,12.8078833 12.5756897,12.5080368 C12.3750297,12.3798581 12.1670206,12.2647589 11.9535797,12.1607772 C12.0139694,12.1316754 12.0743591,12.1009387 12.1341098,12.0702019 C12.4769573,11.8877435 12.8031896,11.6761833 13.107375,11.4319245 C13.8269393,10.8531585 14.4142215,10.1066485 14.8117073,9.26302355 C15.0906503,8.67117813 15.2753343,8.03355462 15.3561734,7.3815437 C15.4044213,6.99308384 15.4152851,6.60070013 15.393238,6.21027835 C15.3472268,5.38529162 15.1507205,4.5694605 14.8053169,3.82164257 C14.4931435,3.14608863 14.0601907,2.52906526 13.5278664,2.01667754 C13.0466657,1.55366477 12.4862235,1.17828436 11.8778528,0.915060296 C11.4055988,0.710693785 10.9061853,0.574013462 10.3978252,0.506981246 C10.1709643,0.477225482 9.94346439,0.46283808 9.71500589,0.457933284 C7.25628121,0.44092999 3.75239884,0.456625338 3.75239884,0.456625338 Z" id="Shape" fill="#FFC400" transform="translate(7.866970, 12.162800) scale(-1, 1) rotate(180.000000) translate(-7.866970, -12.162800) "></path>
                </g>
            </g>
        </g>
    </g>
</svg>